<svg width="232" height="220" viewBox="0 0 232 220" fill="none" xmlns="http://www.w3.org/2000/svg">
<path d="M66.8432 199.435C53.4967 188.128 40.5547 171.571 32.0615 147.342C21.9506 120.69 24.7816 70.2119 56.3278 37.9062C87.065 9.23484 122.656 8.42719 147.326 14.8883C156.628 17.3113 168.357 23.3686 175.232 28.2145C187.366 36.2909 191.814 43.5597 192.219 43.5597C192.219 41.9444 188.174 33.4641 184.535 29.4259C184.535 29.4259 182.108 26.5992 176.446 21.7533C169.975 16.9074 140.046 -6.91803 93.1316 1.96604C46.6213 10.4463 11.4352 48.4055 3.34644 86.7686C-5.95563 125.132 9.81744 164.302 35.7015 188.532C61.5855 212.761 94.3449 217.607 94.3449 217.607C94.3449 217.607 79.7852 210.742 66.8432 199.435Z" fill="white"/>
<path d="M231.854 115.844C233.067 81.5189 218.103 58.0973 218.103 58.0973C218.103 58.0973 216.89 60.1164 212.845 65.7699C208.801 71.4234 193.837 86.7686 186.152 93.2298C178.064 99.6909 170.379 106.152 153.393 117.055C136.406 127.958 110.118 137.246 110.118 137.246C110.118 137.246 136.811 135.227 147.326 133.208C161.886 130.785 176.446 125.132 190.197 118.671C203.948 112.209 213.25 102.921 213.25 105.748C213.654 113.825 208.396 126.747 208.396 126.747C205.161 137.65 179.277 187.724 116.185 184.493C50.6657 181.263 34.0837 122.709 34.0837 122.709C34.0837 122.709 35.2971 155.822 59.9678 183.686C87.874 213.569 118.611 219.222 120.229 219.626C121.847 219.626 127.104 219.222 138.429 217.607C149.753 215.992 173.21 207.511 191.006 194.185C208.396 180.051 230.64 150.169 231.854 115.844Z" fill="#004B87"/>
</svg>
